# xmcd
#
# Track frame offsets:
#	150
#	16385
#	29160
#	43489
#	57175
#	71571
#	85904
#	97808
#	111054
#	125681
#	141799
#
# Disc length: 2061 seconds
#
# Revision: 1
# Processed by: cddbd v1.5.2PL0 Copyright (c) Steve Scherf et al.
# Submitted via: audiograbber 1.82.01
#
DISCID=9b080b0b
DTITLE=Doni César and Saniel - O Seu Tempo Já Venceu
DYEAR=1900
DGENRE=
TTITLE0=Vou Dormir na Rua
TTITLE1=O Seu Tempo Já Venceu
TTITLE2=Teu Olhar
TTITLE3=Tem Alguém no Seu Lugar
TTITLE4=Menina Moça
TTITLE5=Cheiro de Maçã
TTITLE6=Estrada do Amor
TTITLE7=Quem Sou eu Sem Ela
TTITLE8=Corpo e Alma
TTITLE9=Você Não Sabe Amar
TTITLE10=Tô Indo Embora
EXTD=
EXTT0=
EXTT1=
EXTT2=
EXTT3=
EXTT4=
EXTT5=
EXTT6=
EXTT7=
EXTT8=
EXTT9=
EXTT10=
PLAYORDER=
